<svg width="57" height="67" viewBox="0 0 57 67" fill="none" xmlns="http://www.w3.org/2000/svg">
<path d="M38.2694 48.2844C39.0466 47.4713 39.8238 46.5968 40.6477 45.6916C47.8135 37.5295 51.4352 30.2112 51.4352 23.9055V22.6474C51.4352 16.6435 49.0189 10.8856 44.7177 6.64017C40.4165 2.39479 34.5828 0.00976563 28.5 0.00976562C22.4172 0.00976563 16.5835 2.39479 12.2823 6.64017C7.98115 10.8856 5.56477 16.6435 5.56477 22.6474V23.9055C5.56477 30.1958 9.20207 37.5295 16.3523 45.6916C17.1451 46.5968 17.9067 47.4713 18.7306 48.2844C11.3161 49.0976 0 51.3069 0 57.3825C0 60.635 3.20207 63.1358 9.5285 64.8542C15.7362 66.3662 22.1144 67.0881 28.5078 67.0021C34.9011 67.0881 41.2793 66.3662 47.487 64.8542C53.7979 63.1512 57.0155 60.635 57.0155 57.3825C57.0155 51.2455 45.7461 49.0822 38.285 48.2844H38.2694ZM10.8808 23.9055V22.6474C10.8808 18.0311 12.7388 13.6038 16.0459 10.3396C19.3531 7.07533 23.8385 5.2415 28.5155 5.2415C33.1926 5.2415 37.678 7.07533 40.9852 10.3396C44.2923 13.6038 46.1503 18.0311 46.1503 22.6474V23.9055C46.1503 28.815 42.886 35.1514 36.6995 42.1935C34.1463 45.0822 31.4102 47.8084 28.5078 50.3557C25.6226 47.8219 22.9022 45.1112 20.3627 42.2396C14.1451 35.1667 10.8653 28.815 10.8653 23.8288L10.8808 23.9055ZM44.9378 60.098C39.542 61.2605 34.0303 61.8164 28.5078 61.755C22.9853 61.8164 17.4735 61.2605 12.0777 60.098C7.49223 59.0087 5.8601 57.8427 5.45596 57.3825C6.93519 56.2372 8.66514 55.4492 10.5078 55.0811C14.8226 53.9632 19.2473 53.3099 23.7047 53.1326C25.5078 54.7743 26.8135 55.7715 26.8135 55.8482L28.4922 57.1983L30.171 55.8482C30.2798 55.7715 31.4922 54.7743 33.2798 53.1326C37.7208 53.3094 42.1296 53.9575 46.4301 55.0658C48.2899 55.4332 50.0363 56.2267 51.5285 57.3825C51.0622 57.8427 49.4922 59.0087 44.9067 60.098H44.9378Z" fill="#0055B8"/>
</svg>
